<svg xmlns="http://www.w3.org/2000/svg" viewBox="0 0 1600 900" role="img" aria-labelledby="title desc">
  <title id="title">AI intake and routing board</title>
  <desc id="desc">An intake and routing system with requests, owners, SLAs, and tool sync status.</desc>
  <rect width="1600" height="900" fill="#f4feff" />
  <rect x="92" y="84" width="1416" height="732" rx="40" fill="#ffffff" stroke="#bae6fd" />
  <text x="146" y="170" fill="#0f766e" font-family="Segoe UI, sans-serif" font-size="24" font-weight="700">Ops intake</text>
  <text x="146" y="222" fill="#0f172a" font-family="Segoe UI, sans-serif" font-size="48" font-weight="700">Requests sorted before work gets stuck</text>
  <rect x="146" y="292" width="514" height="446" rx="34" fill="#f8fafc" stroke="#e2e8f0" />
  <rect x="188" y="340" width="430" height="62" rx="22" fill="#ffffff" />
  <rect x="188" y="432" width="430" height="62" rx="22" fill="#ffffff" />
  <rect x="188" y="524" width="430" height="62" rx="22" fill="#ffffff" />
  <rect x="188" y="616" width="220" height="38" rx="19" fill="#cffafe" />
  <rect x="700" y="292" width="708" height="446" rx="34" fill="#ecfeff" stroke="#a5f3fc" />
  <rect x="742" y="340" width="182" height="122" rx="30" fill="#ffffff" />
  <rect x="964" y="340" width="182" height="122" rx="30" fill="#ffffff" />
  <rect x="1186" y="340" width="182" height="122" rx="30" fill="#ffffff" />
  <rect x="853" y="548" width="182" height="122" rx="30" fill="#ffffff" />
  <rect x="1075" y="548" width="182" height="122" rx="30" fill="#ffffff" />
  <path d="M924 401 H964 M1146 401 H1186 M1055 462 V548 M1035 609 H1075" stroke="#94a3b8" stroke-width="12" stroke-linecap="round" />
</svg>
