<svg xmlns="http://www.w3.org/2000/svg" viewBox="0 0 1600 900" role="img" aria-labelledby="title desc">
  <title id="title">Cue sheet and ledger illustration</title>
  <desc id="desc">A rights administration view featuring cue sheets, ownership splits, and registration status.</desc>
  <rect width="1600" height="900" fill="#fffbeb" />
  <rect x="94" y="86" width="1412" height="728" rx="40" fill="#ffffff" stroke="#fcd34d" />
  <text x="148" y="172" fill="#a16207" font-family="Segoe UI, sans-serif" font-size="24" font-weight="700">Registration pack</text>
  <text x="148" y="224" fill="#0f172a" font-family="Segoe UI, sans-serif" font-size="48" font-weight="700">Documents that show who owns what</text>
  <rect x="148" y="286" width="560" height="448" rx="34" fill="#fffaf0" stroke="#fde68a" />
  <rect x="190" y="330" width="476" height="52" rx="18" fill="#ffffff" />
  <rect x="190" y="406" width="476" height="26" rx="13" fill="#e2e8f0" />
  <rect x="190" y="454" width="476" height="26" rx="13" fill="#e2e8f0" />
  <rect x="190" y="502" width="476" height="26" rx="13" fill="#e2e8f0" />
  <rect x="190" y="550" width="476" height="26" rx="13" fill="#e2e8f0" />
  <rect x="190" y="598" width="184" height="36" rx="18" fill="#f59e0b" />
  <rect x="746" y="286" width="612" height="448" rx="34" fill="#f8fafc" stroke="#e2e8f0" />
  <rect x="786" y="330" width="532" height="28" rx="14" fill="#e2e8f0" />
  <rect x="786" y="390" width="532" height="34" rx="17" fill="#ffffff" />
  <rect x="786" y="444" width="532" height="34" rx="17" fill="#ffffff" />
  <rect x="786" y="498" width="532" height="34" rx="17" fill="#ffffff" />
  <rect x="786" y="552" width="532" height="34" rx="17" fill="#ffffff" />
  <rect x="1148" y="398" width="130" height="18" rx="9" fill="#84cc16" />
  <rect x="1148" y="452" width="130" height="18" rx="9" fill="#60a5fa" />
  <rect x="1148" y="506" width="130" height="18" rx="9" fill="#fb7185" />
</svg>
