<svg xmlns="http://www.w3.org/2000/svg" viewBox="0 0 1600 900" role="img" aria-labelledby="title desc">
  <title id="title">Royalty workflow illustration</title>
  <desc id="desc">A royalty and rights workflow showing ingestion, review, registration, and reporting.</desc>
  <rect width="1600" height="900" fill="#fffdf5" />
  <rect x="92" y="84" width="1416" height="732" rx="40" fill="#ffffff" stroke="#f3e8c8" />
  <text x="146" y="170" fill="#a16207" font-family="Segoe UI, sans-serif" font-size="24" font-weight="700">Operations flow</text>
  <text x="146" y="222" fill="#0f172a" font-family="Segoe UI, sans-serif" font-size="48" font-weight="700">From catalog intake to clean reporting</text>
  <rect x="146" y="296" width="1308" height="396" rx="34" fill="#f8fafc" stroke="#e2e8f0" />
  <rect x="190" y="430" width="188" height="96" rx="28" fill="#fef3c7" />
  <rect x="456" y="430" width="188" height="96" rx="28" fill="#ffffff" stroke="#cbd5e1" />
  <rect x="722" y="430" width="188" height="96" rx="28" fill="#dbeafe" />
  <rect x="988" y="430" width="188" height="96" rx="28" fill="#dcfce7" />
  <rect x="1254" y="430" width="156" height="96" rx="28" fill="#fee2e2" />
  <path d="M378 478 H456 M644 478 H722 M910 478 H988 M1176 478 H1254" stroke="#94a3b8" stroke-width="12" stroke-linecap="round" />
  <rect x="190" y="564" width="1220" height="68" rx="24" fill="#ffffff" />
  <rect x="230" y="588" width="224" height="20" rx="10" fill="#e2e8f0" />
  <rect x="488" y="588" width="224" height="20" rx="10" fill="#e2e8f0" />
  <rect x="746" y="588" width="224" height="20" rx="10" fill="#e2e8f0" />
  <rect x="1004" y="588" width="224" height="20" rx="10" fill="#e2e8f0" />
</svg>
