<svg xmlns="http://www.w3.org/2000/svg" viewBox="0 0 1600 900" role="img" aria-labelledby="title desc">
  <title id="title">Music rights operations illustration</title>
  <desc id="desc">A rights-led visual with a cue sheet, rights ledger, split notes, and claim workflow panels.</desc>
  <defs>
    <linearGradient id="bg" x1="0" x2="1" y1="0" y2="1">
      <stop offset="0%" stop-color="#fffbeb" />
      <stop offset="55%" stop-color="#ffffff" />
      <stop offset="100%" stop-color="#f8fafc" />
    </linearGradient>
  </defs>
  <rect width="1600" height="900" fill="url(#bg)" />
  <rect x="84" y="76" width="1432" height="748" rx="42" fill="#ffffff" stroke="#f3e8c8" />
  <rect x="128" y="126" width="232" height="34" rx="17" fill="#fef3c7" />
  <text x="152" y="149" fill="#a16207" font-family="Segoe UI, sans-serif" font-size="22" font-weight="700">Music rights operations</text>
  <text x="128" y="210" fill="#0f172a" font-family="Segoe UI, sans-serif" font-size="54" font-weight="700">Rights, catalogs, and usage handled cleanly</text>
  <text x="128" y="252" fill="#475569" font-family="Segoe UI, sans-serif" font-size="24">Less studio mood, more ledger, claim handling, and contract visibility.</text>

  <rect x="128" y="312" width="486" height="402" rx="32" fill="#fffaf0" stroke="#fde68a" />
  <text x="164" y="358" fill="#a16207" font-family="Segoe UI, sans-serif" font-size="24" font-weight="700">Rights ledger</text>
  <rect x="164" y="388" width="414" height="24" rx="12" fill="#f1f5f9" />
  <rect x="164" y="438" width="414" height="32" rx="16" fill="#ffffff" />
  <rect x="164" y="488" width="414" height="32" rx="16" fill="#ffffff" />
  <rect x="164" y="538" width="414" height="32" rx="16" fill="#ffffff" />
  <rect x="164" y="588" width="414" height="32" rx="16" fill="#ffffff" />
  <rect x="468" y="446" width="84" height="16" rx="8" fill="#f59e0b" />
  <rect x="468" y="496" width="84" height="16" rx="8" fill="#84cc16" />
  <rect x="468" y="546" width="84" height="16" rx="8" fill="#60a5fa" />
  <rect x="468" y="596" width="84" height="16" rx="8" fill="#fb7185" />

  <rect x="648" y="312" width="344" height="242" rx="32" fill="#ffffff" stroke="#e2e8f0" />
  <text x="682" y="358" fill="#334155" font-family="Segoe UI, sans-serif" font-size="24" font-weight="700">Cue sheet</text>
  <rect x="682" y="390" width="276" height="18" rx="9" fill="#e2e8f0" />
  <rect x="682" y="434" width="276" height="18" rx="9" fill="#e2e8f0" />
  <rect x="682" y="478" width="220" height="18" rx="9" fill="#e2e8f0" />
  <rect x="682" y="510" width="138" height="30" rx="15" fill="#fef3c7" />

  <rect x="1028" y="312" width="372" height="170" rx="32" fill="#eff6ff" stroke="#bfdbfe" />
  <text x="1062" y="358" fill="#1d4ed8" font-family="Segoe UI, sans-serif" font-size="24" font-weight="700">Split and ownership</text>
  <circle cx="1112" cy="420" r="42" fill="#fde68a" />
  <circle cx="1206" cy="420" r="42" fill="#93c5fd" />
  <circle cx="1300" cy="420" r="42" fill="#fca5a5" />

  <rect x="1028" y="512" width="372" height="202" rx="32" fill="#f8fafc" stroke="#e2e8f0" />
  <text x="1062" y="558" fill="#334155" font-family="Segoe UI, sans-serif" font-size="24" font-weight="700">Claim handling flow</text>
  <rect x="1062" y="594" width="88" height="42" rx="21" fill="#fef3c7" />
  <rect x="1170" y="594" width="88" height="42" rx="21" fill="#ffffff" stroke="#cbd5e1" />
  <rect x="1278" y="594" width="88" height="42" rx="21" fill="#dbeafe" />
  <path d="M1150 615 H1170 M1258 615 H1278" stroke="#94a3b8" stroke-width="10" stroke-linecap="round" />
</svg>
