<svg xmlns="http://www.w3.org/2000/svg" viewBox="0 0 1600 900" role="img" aria-labelledby="title desc">
  <title id="title">SNS KPI review dashboard</title>
  <desc id="desc">A reporting dashboard with KPI cards, trend charts, and format performance comparisons.</desc>
  <rect width="1600" height="900" fill="#fffafc" />
  <rect x="96" y="86" width="1408" height="728" rx="40" fill="#ffffff" stroke="#e2e8f0" />
  <text x="148" y="172" fill="#9f1239" font-family="Segoe UI, sans-serif" font-size="24" font-weight="700">Performance review</text>
  <text x="148" y="224" fill="#0f172a" font-family="Segoe UI, sans-serif" font-size="48" font-weight="700">Decisions based on weekly numbers</text>
  <rect x="148" y="276" width="296" height="136" rx="28" fill="#fff1f2" stroke="#fecdd3" />
  <rect x="472" y="276" width="296" height="136" rx="28" fill="#eff6ff" stroke="#bfdbfe" />
  <rect x="796" y="276" width="296" height="136" rx="28" fill="#f8fafc" stroke="#cbd5e1" />
  <rect x="1120" y="276" width="236" height="136" rx="28" fill="#fef3c7" stroke="#fde68a" />
  <text x="182" y="326" fill="#be123c" font-family="Segoe UI, sans-serif" font-size="22" font-weight="700">Reach</text>
  <text x="182" y="384" fill="#0f172a" font-family="Segoe UI, sans-serif" font-size="52" font-weight="700">1.42M</text>
  <text x="506" y="326" fill="#1d4ed8" font-family="Segoe UI, sans-serif" font-size="22" font-weight="700">Retention</text>
  <text x="506" y="384" fill="#0f172a" font-family="Segoe UI, sans-serif" font-size="52" font-weight="700">63%</text>
  <text x="830" y="326" fill="#334155" font-family="Segoe UI, sans-serif" font-size="22" font-weight="700">Publishing pace</text>
  <text x="830" y="384" fill="#0f172a" font-family="Segoe UI, sans-serif" font-size="52" font-weight="700">4 / week</text>
  <text x="1154" y="326" fill="#a16207" font-family="Segoe UI, sans-serif" font-size="22" font-weight="700">CTA rate</text>
  <text x="1154" y="384" fill="#0f172a" font-family="Segoe UI, sans-serif" font-size="52" font-weight="700">7.8%</text>
  <rect x="148" y="454" width="740" height="286" rx="32" fill="#f8fafc" stroke="#e2e8f0" />
  <path d="M196 662 C274 596, 354 640, 428 554 S602 494, 682 560 S804 620, 840 520" fill="none" stroke="#e11d48" stroke-width="14" stroke-linecap="round" />
  <path d="M196 686 C292 650, 350 706, 438 640 S624 626, 716 584 S804 560, 840 596" fill="none" stroke="#2563eb" stroke-width="14" stroke-linecap="round" opacity="0.75" />
  <rect x="928" y="454" width="428" height="286" rx="32" fill="#ffffff" stroke="#e2e8f0" />
  <rect x="970" y="520" width="64" height="168" rx="22" fill="#fecdd3" />
  <rect x="1070" y="468" width="64" height="220" rx="22" fill="#fda4af" />
  <rect x="1170" y="554" width="64" height="134" rx="22" fill="#bfdbfe" />
  <rect x="1270" y="498" width="64" height="190" rx="22" fill="#93c5fd" />
</svg>
